<?xml version="1.0" encoding="UTF-8" standalone="no"?>
<!-- Created with Inkscape (http://www.inkscape.org/) -->

<svg
   xmlns:dc="http://purl.org/dc/elements/1.1/"
   xmlns:cc="http://creativecommons.org/ns#"
   xmlns:rdf="http://www.w3.org/1999/02/22-rdf-syntax-ns#"
   xmlns:svg="http://www.w3.org/2000/svg"
   xmlns="http://www.w3.org/2000/svg"
   xmlns:xlink="http://www.w3.org/1999/xlink"
   xmlns:sodipodi="http://sodipodi.sourceforge.net/DTD/sodipodi-0.dtd"
   xmlns:inkscape="http://www.inkscape.org/namespaces/inkscape"
   width="24"
   height="24"
   viewBox="0 0 24 24"
   id="svg2"
   version="1.1"
   inkscape:version="0.91 r13725"
   sodipodi:docname="AnalysisSettings.svg">
  <defs
     id="defs4">
    <linearGradient
       inkscape:collect="always"
       id="linearGradient5609">
      <stop
         style="stop-color:#404040;stop-opacity:1"
         offset="0"
         id="stop5611" />
      <stop
         style="stop-color:#808080;stop-opacity:1"
         offset="1"
         id="stop5613" />
    </linearGradient>
    <radialGradient
       inkscape:collect="always"
       xlink:href="#linearGradient5609"
       id="radialGradient5619"
       cx="12"
       cy="11.999997"
       fx="12"
       fy="11.999997"
       r="12.351376"
       gradientTransform="matrix(0,-0.63769833,0.63724031,0,8.3530751,23.648648)"
       gradientUnits="userSpaceOnUse" />
  </defs>
  <sodipodi:namedview
     id="base"
     pagecolor="#ffffff"
     bordercolor="#666666"
     borderopacity="1.0"
     inkscape:pageopacity="0.0"
     inkscape:pageshadow="2"
     inkscape:zoom="11.313709"
     inkscape:cx="11.207518"
     inkscape:cy="9.4263528"
     inkscape:document-units="px"
     inkscape:current-layer="layer1"
     showgrid="false"
     units="px"
     inkscape:window-width="1301"
     inkscape:window-height="744"
     inkscape:window-x="65"
     inkscape:window-y="24"
     inkscape:window-maximized="1" />
  <metadata
     id="metadata7">
    <rdf:RDF>
      <cc:Work
         rdf:about="">
        <dc:format>image/svg+xml</dc:format>
        <dc:type
           rdf:resource="http://purl.org/dc/dcmitype/StillImage" />
        <dc:title />
      </cc:Work>
    </rdf:RDF>
  </metadata>
  <g
     inkscape:label="Layer 1"
     inkscape:groupmode="layer"
     id="layer1"
     transform="translate(0,-1028.3622)"
     style="display:inline">
    <path
       style="fill:#401000;fill-opacity:1;fill-rule:evenodd;stroke:#401000;stroke-width:3;stroke-linecap:round;stroke-linejoin:miter;stroke-miterlimit:4;stroke-dasharray:none;stroke-opacity:1"
       d="m 2.2626258,1050.0996 7.0752315,-7.0748"
       id="path4230"
       inkscape:connector-curvature="0" />
    <ellipse
       style="opacity:1;fill:#afdde9;fill-opacity:0.39215686;stroke:#401000;stroke-width:1;stroke-linecap:round;stroke-linejoin:miter;stroke-miterlimit:4;stroke-dasharray:none;stroke-opacity:1"
       id="path4236"
       cx="14.999999"
       cy="1037.3622"
       ry="6.9999928"
       rx="6.9999943" />
  </g>
  <g
     inkscape:groupmode="layer"
     id="layer2"
     inkscape:label="Layer 2"
     style="display:inline"
     sodipodi:insensitive="true">
    <path
       style="display:inline;opacity:1;fill:url(#radialGradient5619);fill-opacity:1;stroke:#000000;stroke-width:0.5;stroke-linecap:round;stroke-linejoin:miter;stroke-miterlimit:4;stroke-dasharray:none;stroke-opacity:1"
       d="m 8.3563555,12.740519 c 0.4396919,0.428169 0.8332503,0.819866 1.2104863,1.132164 0.3772355,0.312298 0.7382882,0.544783 1.1146922,0.655135 0.376402,0.110354 0.767072,0.09796 1.204266,-0.07971 0.218596,-0.08883 0.635457,-0.297559 0.880805,-0.474537 0.115711,-0.08347 4.172271,4.107624 4.747394,4.495025 0.360142,0.365949 0.607455,0.632956 0.587205,0.660118 -0.182026,0.244156 -0.476232,0.738875 -0.569787,0.959038 -0.09355,0.220154 -0.146252,0.429944 -0.16173,0.632717 -0.01547,0.202773 0.0063,0.398356 0.05847,0.590369 0.05219,0.192014 0.135644,0.381321 0.245082,0.569195 0.109437,0.187876 0.244313,0.375101 0.400593,0.56546 0.156274,0.190362 0.333548,0.383415 0.526243,0.582896 0.192737,0.199438 0.400816,0.405071 0.61955,0.620261 l 0.65314,-0.648908 c -2.438293,-2.555774 0.568805,-5.559168 3.145024,-3.124973 l 0.62577,-0.622752 c -0.439692,-0.428169 -0.833251,-0.819865 -1.210486,-1.132163 -0.377236,-0.312299 -0.73829,-0.544784 -1.114692,-0.655136 -0.376404,-0.110354 -0.767071,-0.09796 -1.204266,0.07971 -0.218596,0.08883 -0.635457,0.297559 -0.880806,0.474538 -0.11571,0.08347 -4.17227,-4.107623 -4.747393,-4.495024 -0.360141,-0.365949 -0.607455,-0.632955 -0.587204,-0.660118 0.182025,-0.244155 0.476231,-0.738875 0.569787,-0.959039 0.09354,-0.220153 0.146251,-0.429943 0.161729,-0.632716 0.01547,-0.202774 -0.0063,-0.398354 -0.05847,-0.590369 -0.05219,-0.192014 -0.135643,-0.381321 -0.245082,-0.569195 C 14.217238,9.9246281 14.082363,9.7374043 13.926082,9.5470457 13.769807,9.3566832 13.592532,9.1636302 13.399838,8.9641493 13.2071,8.7647116 12.999022,8.5590782 12.780288,8.3438881 L 12.12715,8.9927959 c 2.438292,2.5557721 -0.568805,5.5591661 -3.1450242,3.1249711 z"
       id="rect4139-3"
       inkscape:connector-curvature="0"
       sodipodi:nodetypes="csssscsccssccccccsssscsccsccccccc" />
  </g>
</svg>
